<svg viewBox="0 0 1563 1563" xmlns="http://www.w3.org/2000/svg">
    <path fill="#A8FF07"
        d="M642 240h264l3 11h2l3 8 1 3 1 2v2l1 4h2l3 8 1 3 1 2v2l1 5h2l4 9 1 3v3l1 2 1 5h2l3 8 1 2 1 2v2l1 6h2l3 8 1 3 1 2v2l1 4h2a1759 1759 0 0 1 7 23h2l3 8 1 2 1 2v2l1 5h2l3 8 1 2 1 2v2l1 5h2a4191 4191 0 0 1 5 13v2l1 3 1 4h2l3 8 1 3 1 2v2l1 5h2l3 8 1 2 1 2v2l1 6h2a3652 3652 0 0 1 7 21h2l3 8 1 3 1 2v2l1 5h2l3 8 1 3 1 2v2l1 5h2a2390 2390 0 0 1 5 15l1 2 1 5h2l3 8 1 3 1 2v2l1 4h2l3 8 1 3 1 2v2l1 4h2a2745 2745 0 0 1 5 13v2l1 3 1 5h2l3 8 1 3 1 2v2l1 4h2l3 8 1 3 1 2v2l1 5h2l3 8 1 3 1 2v2l1 4h2l3 8 1 2 3 13h2l3 8 1 3 1 2v2l1 4h2l3 8 1 3 1 2v2l1 4h2a2745 2745 0 0 1 5 13v2l1 3 1 5h2l3 8 1 2 1 2v2l1 5h2l3 8 1 2 1 2v2l1 6h2l4 9 1 3v3l1 2 1 4h2l3 8 1 3 1 2v2l1 6h2l3 8 1 2 1 2v2l1 5h2a2390 2390 0 0 1 5 12v3l1 2 1 5h2v3H787v-60l74-1 1-403h-75v-74l-20 1-1 73h-74v404h74v60H386c1-6 1-10 4-15l1-3 1-3h2v-3l4-11v-2l2-5h2l1-3c1-7 4-13 6-20h2l1-2 5-17h2l1-4 5-16h2v-2l4-13 1-2 2-6h2v-2l7-19 7-18h2l1-4 9-24 5-15h2l1-3 5-16h2v-2l4-13 1-2 2-6h2l1-4 5-14 8-22h2l1-4 6-19h2l1-4 5-16h2l1-3 5-16h2v-2l4-13 1-2 2-6h2l1-4 5-14 4-11 1-2 3-9h2l1-3c1-7 4-13 6-20h2l1-2 5-17h2l1-4 5-16h2v-2l4-13 1-2 2-6h2l1-3 5-16h2v-3l4-11v-2l2-5h2l1-3 5-16h2v-2l4-13 1-2 2-6h2l1-4 5-16h2v-3a67 67 0 0 1 4-12l2-5h2l1-4 6-18ZM763 908h161v144h90V908h155v428h-155v-145l-24 1h-66v144H763V908ZM386 908h352v154h-99v274H484v-274h-98V908Z" />
</svg>