<svg xmlns="http://www.w3.org/2000/svg" viewBox="0 0 494 286">
  <defs>
    <linearGradient id="idss12249289104_1g1228862665" x1="0.5" x2="0.5" y1="0" y2="1">
      <stop offset="0" stop-color="rgba(40, 176, 19, 0.8)" />
      <stop offset="1" stop-color="rgba(255,255,255,0)" />
    </linearGradient>
  </defs>
  <path d="M 53.822 170.122 C 29.189 152.204 27.801 174.942 20.839 174.892 L 3.089 174.764 L 4.869 279.745 L 489.248 283.23 L 489.248 5.489 C 450.411 67.986 400.334 97.664 374.382 97.664 C 343.334 97.664 333.834 78.489 306.334 78.489 C 270.376 78.489 256.769 133.668 239.781 135.692 C 211.601 139.05 204.045 106.821 181.936 126.692 C 160.817 145.673 145.501 144.542 128.933 138.472 C 109.017 131.175 97.916 147.548 92.857 156.811 C 86.727 168.036 78.454 188.04 53.822 170.122 Z"
    fill="url(#idss12249289104_1g1228862665)"
    stroke="rgb(123,188,112)" stroke-width="2.77" stroke-miterlimit="10" />
</svg>
