<svg xmlns="http://www.w3.org/2000/svg" xmlns:xlink="http://www.w3.org/1999/xlink" viewBox="0 0 26 26"><path d="M 8.966 11.102 C 8.946 11.102 8.926 11.102 8.906 11.099 C 8.635 11.067 8.443 10.823 8.475 10.551 L 9.6 1.02 C 9.632 0.748 9.881 0.558 10.147 0.588 C 10.419 0.62 10.611 0.864 10.579 1.136 L 9.454 10.667 C 9.425 10.919 9.212 11.104 8.966 11.104 Z" fill="rgb(0,0,0)"></path><path d="M 0.918 13.436 C 0.719 13.436 0.529 13.312 0.455 13.112 C 0.361 12.855 0.492 12.571 0.746 12.477 C 3.04 11.628 4.831 11.21 6.906 10.726 C 7.505 10.585 8.134 10.44 8.808 10.274 C 9.072 10.21 9.341 10.373 9.405 10.637 C 9.469 10.902 9.306 11.171 9.042 11.235 C 8.364 11.401 7.732 11.549 7.128 11.69 C 5.085 12.166 3.321 12.576 1.086 13.406 C 1.029 13.426 0.973 13.436 0.916 13.436 Z" fill="rgb(0,0,0)"></path><path d="M 8.929 16.405 C 8.872 16.405 8.813 16.395 8.758 16.375 C 7.547 15.925 6.193 15.496 4.883 15.081 C 3.563 14.663 2.196 14.229 0.963 13.772 C 0.706 13.678 0.578 13.394 0.672 13.137 C 0.766 12.88 1.052 12.752 1.306 12.845 C 2.517 13.295 3.871 13.725 5.181 14.14 C 6.501 14.557 7.868 14.992 9.101 15.449 C 9.358 15.543 9.489 15.827 9.392 16.084 C 9.318 16.284 9.131 16.407 8.929 16.407 Z" fill="rgb(0,0,0)"></path><path d="M 8.235 25.736 C 8.206 25.736 8.176 25.733 8.147 25.728 C 7.878 25.679 7.7 25.422 7.749 25.153 C 8.319 22.041 8.539 19.109 8.435 15.925 C 8.425 15.654 8.64 15.424 8.914 15.417 C 9.183 15.399 9.415 15.622 9.422 15.893 C 9.526 19.149 9.304 22.147 8.719 25.331 C 8.675 25.568 8.467 25.736 8.235 25.736 Z" fill="rgb(0,0,0)"></path><path d="M 8.529 25.733 C 8.418 25.733 8.305 25.696 8.213 25.62 C 8.004 25.444 7.976 25.133 8.149 24.923 C 8.805 24.135 9.479 23.345 10.192 22.508 C 11.795 20.623 13.453 18.674 14.874 16.802 C 15.039 16.585 15.348 16.543 15.565 16.708 C 15.782 16.874 15.824 17.183 15.659 17.4 C 14.223 19.294 12.555 21.253 10.942 23.147 C 10.231 23.982 9.56 24.773 8.906 25.555 C 8.808 25.672 8.67 25.733 8.527 25.733 Z" fill="rgb(0,0,0)"></path><path d="M 24.776 20.371 C 24.732 20.371 24.688 20.366 24.643 20.351 C 23.178 19.941 21.503 19.442 19.88 18.961 C 18.264 18.479 16.591 17.983 15.136 17.575 C 14.874 17.501 14.721 17.23 14.793 16.968 C 14.867 16.706 15.138 16.55 15.399 16.624 C 16.862 17.034 18.538 17.533 20.158 18.015 C 21.777 18.497 23.449 18.993 24.907 19.401 C 25.169 19.475 25.322 19.746 25.25 20.008 C 25.188 20.225 24.991 20.369 24.776 20.369 Z" fill="rgb(0,0,0)"></path><path d="M 25.08 20.309 C 24.932 20.309 24.784 20.243 24.688 20.114 L 22.44 17.153 C 21.098 15.384 20.134 14.001 19.186 12.171 C 19.061 11.929 19.157 11.63 19.398 11.504 C 19.64 11.378 19.939 11.475 20.064 11.717 C 20.977 13.485 21.915 14.829 23.227 16.555 L 25.475 19.517 C 25.64 19.734 25.598 20.043 25.381 20.208 C 25.292 20.277 25.186 20.309 25.082 20.309 Z" fill="rgb(0,0,0)"></path><path d="M 16.455 8.471 C 16.337 8.471 16.216 8.429 16.122 8.34 C 15.094 7.394 10.841 2.828 9.945 1.6 C 9.785 1.38 9.832 1.072 10.051 0.911 C 10.271 0.751 10.579 0.797 10.739 1.017 C 11.588 2.181 15.806 6.71 16.788 7.614 C 16.988 7.8 17.003 8.111 16.818 8.313 C 16.722 8.419 16.589 8.474 16.455 8.474 Z" fill="rgb(0,0,0)"></path><path d="M 16.455 8.471 C 16.236 8.471 16.036 8.323 15.979 8.101 C 15.91 7.837 16.068 7.567 16.332 7.498 C 19.47 6.683 22.09 5.92 24.67 4.843 C 24.922 4.739 25.211 4.858 25.317 5.11 C 25.42 5.362 25.302 5.651 25.05 5.757 C 22.416 6.854 19.759 7.629 16.579 8.454 C 16.537 8.464 16.495 8.469 16.455 8.469 Z" fill="rgb(0,0,0)"></path><path d="M 19.936 12.396 C 19.808 12.396 19.68 12.347 19.581 12.245 C 19.391 12.05 19.396 11.736 19.591 11.546 C 21.476 9.716 23.082 7.627 24.364 5.332 C 24.498 5.095 24.799 5.009 25.035 5.142 C 25.272 5.275 25.359 5.577 25.225 5.814 C 23.896 8.19 22.23 10.356 20.277 12.253 C 20.18 12.347 20.057 12.391 19.934 12.391 Z" fill="rgb(0,0,0)"></path></svg>